<svg width="30" height="31" viewBox="0 0 30 31" fill="none" xmlns="http://www.w3.org/2000/svg">
<g clip-path="url(#clip0_418_1367)">
<path d="M28.1938 17.5776L25.8188 9.0326C25.1227 6.52927 23.6098 4.33046 21.5205 2.78569C19.4313 1.24092 16.8856 0.438834 14.2882 0.506934C11.6907 0.575035 9.19061 1.50941 7.18518 3.16154C5.17975 4.81366 3.78411 7.08873 3.2201 9.6251L1.38135 17.8939C1.17824 18.8075 1.18294 19.7551 1.39509 20.6668C1.60724 21.5784 2.02143 22.4307 2.60708 23.1608C3.19272 23.8909 3.93487 24.4802 4.77874 24.885C5.6226 25.2899 6.54663 25.5001 7.4826 25.5001H8.8751C9.16199 26.913 9.92851 28.1832 11.0448 29.0956C12.161 30.008 13.5584 30.5064 15.0001 30.5064C16.4418 30.5064 17.8392 30.008 18.9554 29.0956C20.0717 28.1832 20.8382 26.913 21.1251 25.5001H22.1726C23.1361 25.5002 24.0866 25.2775 24.9498 24.8494C25.813 24.4213 26.5655 23.7995 27.1486 23.0324C27.7317 22.2654 28.1296 21.3739 28.3111 20.4277C28.4926 19.4814 28.4529 18.506 28.1951 17.5776H28.1938ZM15.0001 28.0001C14.2273 27.9969 13.4743 27.755 12.8442 27.3075C12.2141 26.86 11.7377 26.2287 11.4801 25.5001H18.5201C18.2625 26.2287 17.7861 26.86 17.156 27.3075C16.5259 27.755 15.7729 27.9969 15.0001 28.0001ZM25.1576 21.5189C24.8093 21.9809 24.358 22.3554 23.8396 22.6126C23.3212 22.8697 22.75 23.0024 22.1713 23.0001H7.4826C6.92108 23 6.36675 22.8738 5.86053 22.6308C5.3543 22.3878 4.90911 22.0343 4.5578 21.5962C4.2065 21.1582 3.95805 20.6468 3.8308 20.0999C3.70355 19.553 3.70075 18.9845 3.8226 18.4364L5.6601 10.1664C6.10304 8.17411 7.19923 6.38711 8.77442 5.08941C10.3496 3.79172 12.3134 3.05782 14.3536 3.00437C16.3938 2.95092 18.3933 3.581 20.0342 4.79444C21.6752 6.00788 22.8635 7.73503 23.4101 9.70135L25.7851 18.2464C25.942 18.8031 25.967 19.3887 25.8581 19.9568C25.7492 20.5248 25.5093 21.0597 25.1576 21.5189Z" fill="#6C72A7"/>
</g>
<defs>
<clipPath id="clip0_418_1367">
<rect width="30" height="30" fill="white" transform="translate(0 0.5)"/>
</clipPath>
</defs>
</svg>
