<svg width="144" height="26" viewBox="0 0 144 26" fill="none" xmlns="http://www.w3.org/2000/svg">
<path d="M135.315 22.676C133.774 22.676 132.393 22.4258 131.172 21.9255C129.952 21.4252 128.971 20.6847 128.231 19.7041C127.51 18.7235 127.13 17.5427 127.09 16.1618H132.553C132.633 16.9423 132.904 17.5427 133.364 17.963C133.824 18.3632 134.424 18.5634 135.165 18.5634C135.925 18.5634 136.526 18.3933 136.966 18.053C137.406 17.6928 137.627 17.2025 137.627 16.5821C137.627 16.0618 137.446 15.6315 137.086 15.2913C136.746 14.9511 136.316 14.6709 135.795 14.4508C135.295 14.2306 134.575 13.9805 133.634 13.7003C132.273 13.28 131.162 12.8598 130.302 12.4395C129.441 12.0192 128.701 11.3988 128.08 10.5783C127.46 9.75778 127.15 8.6871 127.15 7.36627C127.15 5.40502 127.86 3.87405 129.281 2.77335C130.702 1.65264 132.553 1.09229 134.835 1.09229C137.156 1.09229 139.027 1.65264 140.448 2.77335C141.869 3.87405 142.63 5.41503 142.73 7.39628H137.176C137.136 6.71585 136.886 6.18552 136.426 5.80528C135.965 5.40502 135.375 5.20489 134.655 5.20489C134.034 5.20489 133.534 5.375 133.154 5.71522C132.773 6.03542 132.583 6.50572 132.583 7.12611C132.583 7.80655 132.904 8.33688 133.544 8.71712C134.184 9.09736 135.185 9.50762 136.546 9.9479C137.907 10.4082 139.007 10.8485 139.848 11.2687C140.708 11.689 141.449 12.2994 142.069 13.0999C142.69 13.9004 143 14.9311 143 16.1919C143 17.3926 142.69 18.4833 142.069 19.4639C141.469 20.4446 140.588 21.2251 139.428 21.8054C138.267 22.3858 136.896 22.676 135.315 22.676Z" fill="white" stroke="white"/>
<path d="M120.602 1.07471V5.18732H115.018V22.1481H109.885V5.18732H104.301V1.07471H120.602Z" fill="white" stroke="white"/>
<path d="M97.8252 1.07471V22.1481H92.6919V1.07471H97.8252Z" fill="white" stroke="white"/>
<path d="M6.13326 1.39258V14.0006C6.13326 15.2614 6.44345 16.232 7.06385 16.9124C7.68424 17.5929 8.59482 17.9331 9.79558 17.9331C10.9963 17.9331 11.9169 17.5929 12.5573 16.9124C13.1977 16.232 13.5179 15.2614 13.5179 14.0006V1.39258H18.6512V13.9706C18.6512 15.8518 18.2509 17.4428 17.4504 18.7436C16.6499 20.0444 15.5692 21.025 14.2084 21.6855C12.8675 22.3459 11.3666 22.6761 9.70552 22.6761C8.04447 22.6761 6.55352 22.3559 5.23269 21.7155C3.93186 21.0551 2.90121 20.0744 2.14072 18.7736C1.38024 17.4528 1 15.8518 1 13.9706V1.39258H6.13326Z" fill="white" stroke="white"/>
<path d="M38.8962 5.50971C38.8909 5.12309 39.397 4.51133 41.0802 2.87038C42.2851 1.6956 43.3198 0.733417 43.3794 0.732422C43.4392 0.73123 44.4656 1.6777 45.6606 2.83557C48.3618 5.45283 48.4053 5.64157 46.6891 7.28908L45.5449 8.3873L43.3703 8.36244L41.1955 8.33738L40.0491 7.17533C39.2625 6.37782 38.9006 5.85516 38.8962 5.50971Z" fill="white"/>
<path d="M19.4888 23.9067C19.4888 23.8062 34.7757 8.88132 35.8959 7.88811C37.1437 6.78174 37.7707 6.80581 39.0784 8.01042L40.0728 8.92606L39.1953 9.52151C37.4339 10.7168 36.3075 12.5168 35.938 14.7266L35.726 15.9938L31.3447 18.1441C28.9348 19.3267 25.2815 21.1237 23.226 22.1374C21.1704 23.1509 19.4888 23.9472 19.4888 23.9067Z" fill="white"/>
<path d="M46.7402 8.98394C46.7712 8.87455 47.2515 8.4048 47.8076 7.93982C49.2556 6.72904 49.6816 6.77896 51.298 8.34911C53.5191 10.5064 66.1446 22.8313 66.8589 23.5391L67.5384 24.2127L65.694 23.3301C59.8372 20.5277 50.8383 16.0004 50.7086 15.7912C50.6253 15.6569 50.5558 15.2594 50.5541 14.9082C50.5465 13.2762 49.0735 10.7361 47.567 9.75698C47.0813 9.44116 46.7091 9.09332 46.7402 8.98394Z" fill="white"/>
<path d="M21.6981 24.5391C21.6558 24.4956 24.7888 22.8868 28.6603 20.964C32.5319 19.0413 35.8087 17.461 35.9421 17.4522C36.0757 17.4435 36.1848 17.5761 36.1848 17.747C36.1848 18.4128 37.237 20.2853 38.119 21.1888C39.4694 22.5722 40.9552 23.2428 42.9259 23.3584C44.771 23.4665 46.004 23.1434 47.5224 22.1533C48.6332 21.4292 50.0586 19.5444 50.3896 18.3623C50.517 17.9077 50.6412 17.5065 50.6655 17.4709C50.6899 17.4353 53.9905 18.9977 58.0001 20.9428C62.0099 22.8878 65.2611 24.5091 65.2254 24.5459C65.1895 24.5825 62.1147 23.7046 58.3923 22.5951L51.6243 20.5778L51.1446 21.2445C49.7816 23.1388 47.5523 24.6922 45.5035 25.1757C44.3839 25.4398 42.352 25.4398 41.2324 25.1757C39.1928 24.6944 37.238 23.3464 35.6987 21.3592L35.117 20.6084L33.1756 21.1896C32.1079 21.5094 29.1059 22.4115 26.5048 23.1945C23.9035 23.9775 21.7406 24.5825 21.6981 24.5391Z" fill="white"/>
<path fill-rule="evenodd" clip-rule="evenodd" d="M41.4655 10.2614C41.4568 11.2426 41.4696 11.1815 41.2602 11.235C41.0694 11.2837 41.0161 11.2504 40.2539 10.6051C40.2429 10.5957 40.0468 10.7263 39.8184 10.8953C39.5675 11.0807 39.4235 11.2328 39.4551 11.2791C39.4839 11.3212 39.5805 11.5597 39.6696 11.8092C39.8251 12.2442 39.8257 12.2693 39.6837 12.4265C39.5396 12.5862 39.5219 12.5861 38.9959 12.4221L38.456 12.2539L38.2011 12.6883L37.9462 13.1229L38.3466 13.5338C38.7 13.8964 38.7404 13.9641 38.6907 14.1095C38.6296 14.2879 38.421 14.3642 37.8347 14.4225C37.5998 14.446 37.4973 14.4839 37.4882 14.5507C37.4811 14.6029 37.4513 14.8281 37.4218 15.0513L37.3681 15.4571L37.8599 15.6769C38.2608 15.8562 38.3609 15.9348 38.4017 16.1023C38.445 16.2804 38.4193 16.3259 38.2093 16.4428C38.076 16.517 37.8433 16.6467 37.6922 16.731L37.4176 16.8844L37.5356 17.3693L37.6536 17.8542L38.222 17.8523C38.766 17.8505 38.7936 17.8595 38.8637 18.0608C38.9284 18.2463 38.8984 18.3196 38.6106 18.6795C38.4311 18.9039 38.2777 19.095 38.2699 19.1041C38.2621 19.1132 38.3863 19.2959 38.546 19.5103C38.8685 19.9434 38.8906 19.9462 39.579 19.6419C39.88 19.5089 39.9049 19.5101 40.0379 19.665C40.1684 19.8169 40.1677 19.8676 40.028 20.3624L39.8775 20.896L40.2803 21.1398C40.5017 21.2737 40.7089 21.3768 40.7407 21.3686C40.7724 21.3605 40.9513 21.1958 41.1381 21.0025C41.4434 20.6868 41.4986 20.6552 41.6842 20.6904C41.8863 20.7287 41.8921 20.7396 41.9543 21.1999C41.9893 21.4586 42.013 21.7112 42.007 21.7612C41.9977 21.8386 42.8238 22.0397 42.9836 21.9989C43.0116 21.9918 43.1197 21.7608 43.2238 21.4857C43.3946 21.0345 43.4326 20.9853 43.6115 20.9835C43.8912 20.9807 43.8963 20.9838 44.0073 21.2242C44.0623 21.3432 44.1685 21.5536 44.2436 21.6918L44.3799 21.9431L44.8583 21.8209L45.3367 21.6987L45.342 21.4113C45.3449 21.2532 45.3423 21.0163 45.3363 20.8848C45.3241 20.6198 45.3277 20.6136 45.5708 20.4845C45.7222 20.404 45.788 20.4319 46.1364 20.7244C46.3532 20.9064 46.5373 21.0615 46.5454 21.0691C46.5536 21.0767 46.7427 20.9489 46.9656 20.7851L47.371 20.4874L47.2379 20.1717C46.9933 19.5915 46.97 19.4061 47.126 19.2791C47.2452 19.1819 47.344 19.1864 47.7384 19.3072L48.2087 19.4513L48.4569 19.0385C48.5933 18.8115 48.6983 18.598 48.6901 18.5642C48.6819 18.5304 48.5259 18.3464 48.3436 18.1555C48.0152 17.8117 48.0128 17.8063 48.0955 17.5975C48.1724 17.4032 48.2063 17.3843 48.5228 17.3579C49.2156 17.3 49.2226 17.2948 49.308 16.7692C49.3505 16.5075 49.3832 16.2851 49.3808 16.2749C49.3783 16.2648 49.1567 16.1659 48.8884 16.0553C48.4578 15.8778 48.4004 15.8314 48.3986 15.6599C48.3957 15.3724 48.3874 15.3818 48.8781 15.117L49.3329 14.8718L49.2155 14.3893C49.0842 13.8499 49.1389 13.881 48.3096 13.8747C48.065 13.8728 47.9885 13.8363 47.9186 13.6883C47.8477 13.5379 47.864 13.4617 48.008 13.2713C48.1049 13.1431 48.2537 12.9355 48.3385 12.81L48.4929 12.5817L48.1962 12.1849C47.925 11.8222 47.8849 11.795 47.7285 11.8689C47.6344 11.9133 47.4052 12.0095 47.2193 12.0826C46.9066 12.2055 46.871 12.2039 46.7447 12.0609C46.6195 11.9193 46.6206 11.8637 46.757 11.4003L46.9059 10.8944L46.4773 10.6306L46.0486 10.3668L45.6576 10.7432C45.2891 11.0978 45.2555 11.1157 45.0766 11.0518C44.9038 10.9901 44.8843 10.9526 44.859 10.6346C44.7989 9.87727 44.7836 9.8547 44.2744 9.76888L43.8155 9.69163L43.596 10.193C43.4209 10.593 43.3372 10.7045 43.182 10.7441C43.0132 10.7872 42.969 10.7589 42.8469 10.5289C42.7695 10.3833 42.6429 10.1449 42.5655 9.99925L42.4248 9.7344L41.9464 9.8566L41.468 9.97879L41.4655 10.2614ZM43.4079 11.7781C44.1448 11.7819 44.8007 11.9744 45.4602 12.3804C47.3771 13.5602 47.9688 15.9912 46.8221 17.9753C45.6922 19.9302 43.2605 20.5531 41.3612 19.3741C40.3763 18.7628 39.8149 17.9881 39.541 16.8626C39.267 15.737 39.4077 14.783 39.9971 13.7696C40.3847 13.1032 40.8558 12.6346 41.5058 12.2688C41.9756 12.0044 42.8639 11.7753 43.4079 11.7781ZM41.7132 12.7391C41.168 13.0496 40.7649 13.4552 40.4243 14.0357C40.0759 14.6298 39.9226 15.1742 39.9158 15.8414C39.9111 16.2902 40.1163 17.284 40.2198 17.3145C40.273 17.3302 43.0906 15.7525 43.1303 15.6848C43.1713 15.6148 43.1969 12.3515 43.1568 12.3114C43.0809 12.2356 42.0727 12.5344 41.7132 12.7391ZM43.7163 12.3936C43.7075 12.4268 43.6883 13.1952 43.6736 14.101L43.6469 15.7481L45.0853 16.6334C46.7159 17.6371 46.5659 17.6289 46.7772 16.7256C47.0526 15.5477 46.7977 14.4549 46.0269 13.5084C45.6802 13.0828 44.9499 12.6067 44.3759 12.4322C43.9052 12.289 43.7463 12.2797 43.7163 12.3936ZM41.9399 16.9959C41.1865 17.4267 40.5533 17.8078 40.5329 17.8427C40.4606 17.9659 41.1057 18.6123 41.6203 18.9321C42.6625 19.5797 43.9675 19.6176 45.0264 19.031C45.4979 18.7698 45.9986 18.3499 46.1234 18.1109C46.2152 17.9351 46.2014 17.9241 44.797 17.0583C44.0165 16.5771 43.3625 16.1899 43.3438 16.1979C43.3251 16.2059 42.6934 16.565 41.9399 16.9959Z" fill="white"/>
<path d="M86.2246 1.07471L78.7499 22.1481H72.3258L64.8511 1.07471H70.3145L75.5379 16.9848L80.7912 1.07471H86.2246Z" fill="white" stroke="white"/>
</svg>
