<svg width="36" height="37" viewBox="0 0 36 37" fill="none" xmlns="http://www.w3.org/2000/svg">
<path d="M18 9.5C16.8875 9.5 15.7999 9.8299 14.8749 10.448C13.9499 11.0661 13.2289 11.9446 12.8032 12.9724C12.3774 14.0002 12.266 15.1312 12.4831 16.2224C12.7001 17.3135 13.2359 18.3158 14.0225 19.1025C14.8092 19.8891 15.8115 20.4249 16.9026 20.6419C17.9938 20.859 19.1248 20.7476 20.1526 20.3218C21.1804 19.8961 22.0589 19.1751 22.677 18.2501C23.2951 17.3251 23.625 16.2375 23.625 15.125C23.625 13.6332 23.0324 12.2024 21.9775 11.1475C20.9226 10.0926 19.4918 9.5 18 9.5Z" fill="#6C72A7"/>
<path d="M18 2.75C14.885 2.75 11.8398 3.67372 9.24978 5.40435C6.6597 7.13499 4.64098 9.5948 3.4489 12.4727C2.25682 15.3507 1.94492 18.5175 2.55264 21.5727C3.16036 24.6279 4.6604 27.4343 6.86307 29.6369C9.06575 31.8396 11.8721 33.3397 14.9273 33.9474C17.9825 34.5551 21.1493 34.2432 24.0273 33.0511C26.9052 31.859 29.365 29.8403 31.0957 27.2502C32.8263 24.6602 33.75 21.6151 33.75 18.5C33.7452 14.3243 32.0843 10.321 29.1317 7.36833C26.179 4.41566 22.1757 2.75476 18 2.75ZM26.991 28.5417C26.9686 27.0661 26.3674 25.6584 25.3169 24.6218C24.2664 23.5852 22.8508 23.0028 21.375 23H14.625C13.1492 23.0028 11.7336 23.5852 10.6831 24.6218C9.63264 25.6584 9.03143 27.0661 9.00901 28.5417C6.96889 26.7201 5.5302 24.3217 4.88345 21.6642C4.23669 19.0068 4.41237 16.2155 5.38723 13.6601C6.36208 11.1047 8.09013 8.90563 10.3426 7.35414C12.595 5.80265 15.2655 4.9719 18.0006 4.9719C20.7356 4.9719 23.4062 5.80265 25.6586 7.35414C27.911 8.90563 29.6391 11.1047 30.6139 13.6601C31.5888 16.2155 31.7645 19.0068 31.1177 21.6642C30.4709 24.3217 29.0322 26.7201 26.9921 28.5417H26.991Z" fill="#6C72A7"/>
</svg>
