<svg width="24" height="25" viewBox="0 0 24 25" fill="none" xmlns="http://www.w3.org/2000/svg">
<path d="M12 17.4717C12.4142 17.4717 12.75 17.1359 12.75 16.7217C12.75 16.3075 12.4142 15.9717 12 15.9717C11.5858 15.9717 11.25 16.3075 11.25 16.7217C11.25 17.1359 11.5858 17.4717 12 17.4717Z" fill="white"/>
<path d="M21 15.2217V12.2217H19.5V13.7217H4.5V12.2217H3V15.2217H8.25V18.5307L5.25 20.1994V23.4717H6.75V21.0807L9.195 19.7217H14.8057L17.25 21.0814V23.4717H18.75V20.1994L15.75 18.5307V15.2217H21ZM14.25 18.2217H9.75V15.2217H14.25V18.2217ZM0 9.22168H7.5V10.7217H0V9.22168ZM16.5 9.22168H24V10.7217H16.5V9.22168ZM12 5.47168C11.4091 5.47146 10.8241 5.58796 10.2783 5.81449C9.73262 6.04101 9.23702 6.3731 8.82 6.79168L9.87975 7.85143C10.158 7.57264 10.4885 7.35146 10.8523 7.20055C11.2161 7.04963 11.6061 6.97196 12 6.97196C12.3939 6.97196 12.7839 7.04963 13.1477 7.20055C13.5115 7.35146 13.842 7.57264 14.1202 7.85143L15.1807 6.79093C14.7636 6.37236 14.2679 6.04034 13.722 5.81394C13.1762 5.58754 12.5909 5.47123 12 5.47168Z" fill="white"/>
<path d="M6.69922 4.67057L7.75972 5.73107C8.31619 5.17349 8.97716 4.73112 9.7048 4.4293C10.4324 4.12747 11.2125 3.97212 12.0002 3.97212C12.788 3.97212 13.568 4.12747 14.2956 4.4293C15.0233 4.73112 15.6842 5.17349 16.2407 5.73107L17.3012 4.67057C16.6057 3.97339 15.7794 3.42026 14.8698 3.04286C13.9602 2.66545 12.985 2.47119 12.0002 2.47119C11.0154 2.47119 10.0403 2.66545 9.13064 3.04286C8.22102 3.42026 7.39477 3.97339 6.69922 4.67057Z" fill="white"/>
</svg>
