<svg width="40" height="40" viewBox="0 0 40 40" fill="none" xmlns="http://www.w3.org/2000/svg">
<path d="M20 27.5C20.6904 27.5 21.25 26.9404 21.25 26.25C21.25 25.5596 20.6904 25 20 25C19.3096 25 18.75 25.5596 18.75 26.25C18.75 26.9404 19.3096 27.5 20 27.5Z" fill="#1F3BB3"/>
<path d="M35 23.75V18.75H32.5V21.25H7.5V18.75H5V23.75H13.75V29.265L8.75 32.0463V37.5H11.25V33.515L15.325 31.25H24.6762L28.75 33.5163V37.5H31.25V32.0463L26.25 29.265V23.75H35ZM23.75 28.75H16.25V23.75H23.75V28.75ZM0 13.75H12.5V16.25H0V13.75ZM27.5 13.75H40V16.25H27.5V13.75ZM20 7.5C19.0152 7.49964 18.0401 7.69381 17.1306 8.07134C16.221 8.44888 15.395 9.00236 14.7 9.7L16.4663 11.4663C16.93 11.0016 17.4808 10.633 18.0872 10.3814C18.6935 10.1299 19.3435 10.0005 20 10.0005C20.6565 10.0005 21.3065 10.1299 21.9128 10.3814C22.5192 10.633 23.07 11.0016 23.5337 11.4663L25.3012 9.69875C24.606 9.00113 23.7798 8.44776 22.87 8.07043C21.9603 7.6931 20.9849 7.49924 20 7.5Z" fill="#1F3BB3"/>
<path d="M11.165 6.16465L12.9325 7.93215C13.86 7.00285 14.9616 6.26557 16.1743 5.76254C17.3871 5.2595 18.6871 5.00057 20 5.00057C21.313 5.00057 22.613 5.2595 23.8257 5.76254C25.0385 6.26557 26.1401 7.00285 27.0675 7.93215L28.835 6.16465C27.6758 5.00268 26.2987 4.0808 24.7827 3.4518C23.2666 2.8228 21.6414 2.49902 20 2.49902C18.3587 2.49902 16.7335 2.8228 15.2174 3.4518C13.7014 4.0808 12.3243 5.00268 11.165 6.16465V6.16465Z" fill="#1F3BB3"/>
</svg>
