<svg width="40" height="40" viewBox="0 0 40 40" fill="none" xmlns="http://www.w3.org/2000/svg">
<path d="M20 27.5C20.6904 27.5 21.25 26.9404 21.25 26.25C21.25 25.5596 20.6904 25 20 25C19.3096 25 18.75 25.5596 18.75 26.25C18.75 26.9404 19.3096 27.5 20 27.5Z" fill="#2AB514"/>
<mask id="path-2-inside-1_33_5707" fill="white">
<path d="M35 23.75V18.75H32.5V21.25H7.5V18.75H5V23.75H13.75V29.265L8.75 32.0463V37.5H11.25V33.515L15.325 31.25H24.6762L28.75 33.5163V37.5H31.25V32.0463L26.25 29.265V23.75H35ZM23.75 28.75H16.25V23.75H23.75V28.75ZM0 13.75H12.5V16.25H0V13.75ZM27.5 13.75H40V16.25H27.5V13.75ZM20 7.5C19.0152 7.49964 18.0401 7.69381 17.1306 8.07134C16.221 8.44888 15.395 9.00236 14.7 9.7L16.4663 11.4663C16.93 11.0016 17.4808 10.633 18.0872 10.3814C18.6935 10.1299 19.3435 10.0005 20 10.0005C20.6565 10.0005 21.3065 10.1299 21.9128 10.3814C22.5192 10.633 23.07 11.0016 23.5337 11.4663L25.3012 9.69875C24.606 9.00113 23.7798 8.44776 22.87 8.07043C21.9603 7.6931 20.9849 7.49924 20 7.5Z"/>
</mask>
<path d="M35 23.75V18.75H32.5V21.25H7.5V18.75H5V23.75H13.75V29.265L8.75 32.0463V37.5H11.25V33.515L15.325 31.25H24.6762L28.75 33.5163V37.5H31.25V32.0463L26.25 29.265V23.75H35ZM23.75 28.75H16.25V23.75H23.75V28.75ZM0 13.75H12.5V16.25H0V13.75ZM27.5 13.75H40V16.25H27.5V13.75ZM20 7.5C19.0152 7.49964 18.0401 7.69381 17.1306 8.07134C16.221 8.44888 15.395 9.00236 14.7 9.7L16.4663 11.4663C16.93 11.0016 17.4808 10.633 18.0872 10.3814C18.6935 10.1299 19.3435 10.0005 20 10.0005C20.6565 10.0005 21.3065 10.1299 21.9128 10.3814C22.5192 10.633 23.07 11.0016 23.5337 11.4663L25.3012 9.69875C24.606 9.00113 23.7798 8.44776 22.87 8.07043C21.9603 7.6931 20.9849 7.49924 20 7.5Z" fill="#2AB514"/>
<path d="M35 23.75V27.75H39V23.75H35ZM35 18.75H39V14.75H35V18.75ZM32.5 18.75V14.75H28.5V18.75H32.5ZM32.5 21.25V25.25H36.5V21.25H32.5ZM7.5 21.25H3.5V25.25H7.5V21.25ZM7.5 18.75H11.5V14.75H7.5V18.75ZM5 18.75V14.75H1V18.75H5ZM5 23.75H1V27.75H5V23.75ZM13.75 23.75H17.75V19.75H13.75V23.75ZM13.75 29.265L15.6944 32.7606L17.75 31.6172V29.265H13.75ZM8.75 32.0463L6.80557 28.5507L4.75 29.6941V32.0463H8.75ZM8.75 37.5H4.75V41.5H8.75V37.5ZM11.25 37.5V41.5H15.25V37.5H11.25ZM11.25 33.515L9.3067 30.0188L7.25 31.162V33.515H11.25ZM15.325 31.25V27.25H14.2881L13.3817 27.7538L15.325 31.25ZM24.6762 31.25L26.6208 27.7545L25.714 27.25H24.6762V31.25ZM28.75 33.5163H32.75V31.1642L30.6946 30.0207L28.75 33.5163ZM28.75 37.5H24.75V41.5H28.75V37.5ZM31.25 37.5V41.5H35.25V37.5H31.25ZM31.25 32.0463H35.25V29.6941L33.1944 28.5507L31.25 32.0463ZM26.25 29.265H22.25V31.6172L24.3056 32.7606L26.25 29.265ZM26.25 23.75V19.75H22.25V23.75H26.25ZM23.75 28.75V32.75H27.75V28.75H23.75ZM16.25 28.75H12.25V32.75H16.25V28.75ZM16.25 23.75V19.75H12.25V23.75H16.25ZM23.75 23.75H27.75V19.75H23.75V23.75ZM0 13.75V9.75H-4V13.75H0ZM12.5 13.75H16.5V9.75H12.5V13.75ZM12.5 16.25V20.25H16.5V16.25H12.5ZM0 16.25H-4V20.25H0V16.25ZM27.5 13.75V9.75H23.5V13.75H27.5ZM40 13.75H44V9.75H40V13.75ZM40 16.25V20.25H44V16.25H40ZM27.5 16.25H23.5V20.25H27.5V16.25ZM14.7 9.7L11.8663 6.87687L9.04843 9.70528L11.8716 12.5284L14.7 9.7ZM16.4663 11.4663L13.6378 14.2947L16.4691 17.1259L19.2975 14.2919L16.4663 11.4663ZM23.5337 11.4663L20.7025 14.2919L23.5309 17.1259L26.3622 14.2947L23.5337 11.4663ZM25.3012 9.69875L28.1297 12.5272L30.9533 9.70356L28.1345 6.87515L25.3012 9.69875ZM39 23.75V18.75H31V23.75H39ZM35 14.75H32.5V22.75H35V14.75ZM28.5 18.75V21.25H36.5V18.75H28.5ZM32.5 17.25H7.5V25.25H32.5V17.25ZM11.5 21.25V18.75H3.5V21.25H11.5ZM7.5 14.75H5V22.75H7.5V14.75ZM1 18.75V23.75H9V18.75H1ZM5 27.75H13.75V19.75H5V27.75ZM9.75 23.75V29.265H17.75V23.75H9.75ZM11.8056 25.7694L6.80557 28.5507L10.6944 35.5418L15.6944 32.7606L11.8056 25.7694ZM4.75 32.0463V37.5H12.75V32.0463H4.75ZM8.75 41.5H11.25V33.5H8.75V41.5ZM15.25 37.5V33.515H7.25V37.5H15.25ZM13.1933 37.0112L17.2683 34.7462L13.3817 27.7538L9.3067 30.0188L13.1933 37.0112ZM15.325 35.25H24.6762V27.25H15.325V35.25ZM22.7317 34.7455L26.8054 37.0118L30.6946 30.0207L26.6208 27.7545L22.7317 34.7455ZM24.75 33.5163V37.5H32.75V33.5163H24.75ZM28.75 41.5H31.25V33.5H28.75V41.5ZM35.25 37.5V32.0463H27.25V37.5H35.25ZM33.1944 28.5507L28.1944 25.7694L24.3056 32.7606L29.3056 35.5418L33.1944 28.5507ZM30.25 29.265V23.75H22.25V29.265H30.25ZM26.25 27.75H35V19.75H26.25V27.75ZM23.75 24.75H16.25V32.75H23.75V24.75ZM20.25 28.75V23.75H12.25V28.75H20.25ZM16.25 27.75H23.75V19.75H16.25V27.75ZM19.75 23.75V28.75H27.75V23.75H19.75ZM0 17.75H12.5V9.75H0V17.75ZM8.5 13.75V16.25H16.5V13.75H8.5ZM12.5 12.25H0V20.25H12.5V12.25ZM4 16.25V13.75H-4V16.25H4ZM27.5 17.75H40V9.75H27.5V17.75ZM36 13.75V16.25H44V13.75H36ZM40 12.25H27.5V20.25H40V12.25ZM31.5 16.25V13.75H23.5V16.25H31.5ZM20.0015 3.5C18.4899 3.49945 16.9931 3.79748 15.597 4.37698L18.6641 11.7657C19.0871 11.5901 19.5406 11.4998 19.9985 11.5L20.0015 3.5ZM15.597 4.37698C14.201 4.95648 12.9331 5.80604 11.8663 6.87687L17.5337 12.5231C17.8569 12.1987 18.2411 11.9413 18.6641 11.7657L15.597 4.37698ZM11.8716 12.5284L13.6378 14.2947L19.2947 8.63783L17.5284 6.87158L11.8716 12.5284ZM19.2975 14.2919C19.3897 14.1995 19.4992 14.1262 19.6197 14.0762L16.5546 6.68669C15.4624 7.13973 14.4703 7.80372 13.635 8.64065L19.2975 14.2919ZM19.6197 14.0762C19.7403 14.0262 19.8695 14.0005 20 14.0005V6.00046C18.8176 6.00046 17.6468 6.23365 16.5546 6.68669L19.6197 14.0762ZM20 14.0005C20.1305 14.0005 20.2597 14.0262 20.3803 14.0762L23.4454 6.68669C22.3532 6.23365 21.1824 6.00046 20 6.00046V14.0005ZM20.3803 14.0762C20.5008 14.1262 20.6103 14.1995 20.7025 14.2919L26.365 8.64065C25.5297 7.80372 24.5376 7.13973 23.4454 6.68669L20.3803 14.0762ZM26.3622 14.2947L28.1297 12.5272L22.4728 6.87033L20.7053 8.63783L26.3622 14.2947ZM28.1345 6.87515C27.0673 5.80428 25.799 4.95484 24.4025 4.37563L21.3376 11.7652C21.7606 11.9407 22.1447 12.198 22.468 12.5224L28.1345 6.87515ZM24.4025 4.37563C23.006 3.79641 21.5088 3.49884 19.9969 3.5L20.0031 11.5C20.461 11.4996 20.9145 11.5898 21.3376 11.7652L24.4025 4.37563Z" fill="#2AB514" mask="url(#path-2-inside-1_33_5707)"/>
<path d="M11.165 6.16465L12.9325 7.93215C13.86 7.00285 14.9616 6.26557 16.1743 5.76254C17.3871 5.2595 18.6871 5.00057 20 5.00057C21.313 5.00057 22.613 5.2595 23.8257 5.76254C25.0385 6.26557 26.1401 7.00285 27.0675 7.93215L28.835 6.16465C27.6758 5.00268 26.2987 4.0808 24.7827 3.4518C23.2666 2.8228 21.6414 2.49902 20 2.49902C18.3587 2.49902 16.7335 2.8228 15.2174 3.4518C13.7014 4.0808 12.3243 5.00268 11.165 6.16465Z" fill="#2AB514"/>
</svg>
