<svg width="44" height="40" viewBox="0 0 44 40" fill="none" xmlns="http://www.w3.org/2000/svg">
<path d="M30.1121 32.92L28.9594 24.38C28.7961 23.1704 28.1608 22.0576 27.1731 21.251C26.1853 20.4444 24.9132 19.9995 23.5958 20H19.6263C18.3095 20.0003 17.0383 20.4456 16.0513 21.2521C15.0643 22.0587 14.4295 23.1709 14.2663 24.38L13.1118 32.92C13.0484 33.3892 13.0937 33.8655 13.2445 34.3172C13.3953 34.769 13.6483 35.1859 13.9866 35.5403C14.3249 35.8946 14.7408 36.1783 15.2067 36.3725C15.6726 36.5667 16.1778 36.667 16.6887 36.6667H26.537C27.0478 36.6668 27.5528 36.5663 28.0185 36.372C28.4841 36.1777 28.8998 35.894 29.2379 35.5397C29.576 35.1853 29.8288 34.7685 29.9796 34.3169C30.1303 33.8652 30.1755 33.389 30.1121 32.92V32.92Z" stroke="#EEAC0C" stroke-width="4" stroke-linecap="round" stroke-linejoin="round"/>
<path d="M21.6127 13.333C24.5968 13.333 27.0159 11.0944 27.0159 8.33301C27.0159 5.57158 24.5968 3.33301 21.6127 3.33301C18.6286 3.33301 16.2095 5.57158 16.2095 8.33301C16.2095 11.0944 18.6286 13.333 21.6127 13.333Z" stroke="#EEAC0C" stroke-width="4"/>
<path d="M7.2042 18.3327C9.19361 18.3327 10.8064 16.8403 10.8064 14.9993C10.8064 13.1584 9.19361 11.666 7.2042 11.666C5.21479 11.666 3.60205 13.1584 3.60205 14.9993C3.60205 16.8403 5.21479 18.3327 7.2042 18.3327Z" stroke="#EEAC0C" stroke-width="4"/>
<path d="M36.0216 18.3327C38.011 18.3327 39.6237 16.8403 39.6237 14.9993C39.6237 13.1584 38.011 11.666 36.0216 11.666C34.0322 11.666 32.4194 13.1584 32.4194 14.9993C32.4194 16.8403 34.0322 18.3327 36.0216 18.3327Z" stroke="#EEAC0C" stroke-width="4"/>
<path d="M7.20416 23.333H6.65303C5.80034 23.3329 4.97525 23.6127 4.32456 24.1227C3.67387 24.6327 3.23978 25.3397 3.09951 26.118L2.49976 29.4513C2.41369 29.9289 2.44108 30.4181 2.58003 30.8849C2.71898 31.3517 2.96615 31.7849 3.30435 32.1543C3.64254 32.5237 4.06365 32.8205 4.53838 33.0241C5.01311 33.2277 5.53006 33.3331 6.05328 33.333H12.6074M36.0214 23.333H36.5725C37.4252 23.3329 38.2503 23.6127 38.901 24.1227C39.5516 24.6327 39.9857 25.3397 40.126 26.118L40.7258 29.4513C40.8118 29.9289 40.7844 30.4181 40.6455 30.8849C40.5065 31.3517 40.2594 31.7849 39.9212 32.1543C39.583 32.5237 39.1619 32.8205 38.6871 33.0241C38.2124 33.2277 37.6955 33.3331 37.1722 33.333H30.6181" stroke="#EEAC0C" stroke-width="4" stroke-linecap="round" stroke-linejoin="round"/>
</svg>
