<svg width="24" height="25" viewBox="0 0 24 25" fill="none" xmlns="http://www.w3.org/2000/svg">
<g clip-path="url(#clip0_418_6354)">
<path d="M9 12.9717C10.93 12.9717 12.5 11.4017 12.5 9.47168C12.5 7.54168 10.93 5.97168 9 5.97168C7.07 5.97168 5.5 7.54168 5.5 9.47168C5.5 11.4017 7.07 12.9717 9 12.9717ZM9 7.97168C9.83 7.97168 10.5 8.64168 10.5 9.47168C10.5 10.3017 9.83 10.9717 9 10.9717C8.17 10.9717 7.5 10.3017 7.5 9.47168C7.5 8.64168 8.17 7.97168 9 7.97168ZM9.05 17.9717H4.77C5.76 17.4717 7.47 16.9717 9 16.9717C9.11 16.9717 9.23 16.9817 9.34 16.9817C9.68 16.2517 10.27 15.6517 10.98 15.1717C10.25 15.0417 9.56 14.9717 9 14.9717C6.66 14.9717 2 16.1417 2 18.4717V19.9717H9V18.4717C9 18.3017 9.02 18.1317 9.05 17.9717ZM16.5 15.4717C14.66 15.4717 11 16.4817 11 18.4717V19.9717H22V18.4717C22 16.4817 18.34 15.4717 16.5 15.4717ZM17.71 13.6517C18.47 13.2217 19 12.4117 19 11.4717C19 10.0917 17.88 8.97168 16.5 8.97168C15.12 8.97168 14 10.0917 14 11.4717C14 12.4117 14.53 13.2217 15.29 13.6517C15.65 13.8517 16.06 13.9717 16.5 13.9717C16.94 13.9717 17.35 13.8517 17.71 13.6517Z" fill="white"/>
</g>
<defs>
<clipPath id="clip0_418_6354">
<rect width="24" height="24" fill="white" transform="translate(0 0.97168)"/>
</clipPath>
</defs>
</svg>
